HIERARCHY
ROOT Hips
{
	OFFSET 0.00000 0.00000 0.00000
	CHANNELS 6 Xposition Yposition Zposition Yrotation Zrotation Xrotation 
	JOINT Lumbar
	{
		OFFSET 0 0 0
		CHANNELS 3 Zrotation Xrotation Yrotation
		JOINT Neck
		{
			OFFSET 0.00 0.2701 0.00
			CHANNELS 3 Zrotation Xrotation Yrotation
			End Site
			{
				OFFSET 0.00 0.1379 0.00
			}
		}
		JOINT RightShoulder
		{
			OFFSET 0.0119 0.2289 0.1181
			CHANNELS 3 Zrotation Xrotation Yrotation
			JOINT RightElbow
			{
				OFFSET 0.00 -0.1475 0.00
				CHANNELS 2 Zrotation Yrotation
				JOINT RightWrist
				{
					OFFSET 0.00 -0.1605 0.00
					CHANNELS 2 Zrotation Xrotation
					End Site
					{
						OFFSET 0.0040 -0.1068 0.0006
					}
				}
			}
		}
		JOINT LeftShoulder
		{
			OFFSET 0.0119 0.2289 -0.1181
			CHANNELS 3 Zrotation Xrotation Yrotation
			JOINT LeftElbow
			{
				OFFSET 0.00 -0.1475 0.00
				CHANNELS 2 Zrotation Yrotation
				JOINT LeftWrist
				{
					OFFSET 0.00 -0.1605 0.00
					CHANNELS 2 Zrotation Xrotation
					End Site
					{
						OFFSET 0.0040 -0.1068 -0.0006
					}
				}
			}
		}
	}
	JOINT RightHip
	{
		OFFSET 0.0316 -0.0424 0.0458
		CHANNELS 3 Zrotation Xrotation Yrotation
		JOINT RightKnee
		{
			OFFSET 0.00 -0.2438 0.00
			CHANNELS 1 Zrotation
			JOINT RightAnkle
			{
				OFFSET 0.00 -0.2449 0.00
				CHANNELS 3 Zrotation Xrotation Yrotation
				End Site
				{
					OFFSET 0.1237 -0.0542 0.0051
				}
			}
		}
	}
	JOINT LeftHip
	{
		OFFSET 0.0316 -0.0424 -0.0458
		CHANNELS 3 Zrotation Xrotation Yrotation
		JOINT LeftKnee
		{
			OFFSET 0.00 -0.2438 0.00
			CHANNELS 1 Zrotation
			JOINT LeftAnkle
			{
				OFFSET 0.00 -0.2449 0.00
				CHANNELS 3 Zrotation Xrotation Yrotation
				End Site
				{
					OFFSET 0.1237 -0.0542 -0.0051
				}
			}
		}
	}
}
MOTION
Frames: 31
Frame Time: 0.02
-0.00055 0.0002 -0.00042 -174.03407 -22.83422 1.51543 37.75106 0.16089 -12.38706 -15.06985 2.40031 -1.17235 -20.28333 -8.14 1.4803 131.22551 81.18889 -3.11885 3.18495 -25.115 4.684 13.62046 31.25643 -86.71371 4.18133 7.85244 25.81823 -5.30525 -9.70832 -19.87778 -6.58877 -2.31111 -3.3424 28.16711 6.95092 7.94355 -24.38628 -6.85485 1.34088 2.89668
0.00033 0.00015 0.00043 -174.25515 -22.84457 1.43915 37.55556 0.16775 -12.54683 -15.06829 2.41955 -1.17311 -20.47133 -7.60754 2.12301 131.36669 81.1914 -3.08615 3.00189 -25.01897 4.58069 13.96865 31.12311 -86.96425 4.12966 6.15171 25.96531 -5.27689 -9.33097 -19.88731 -6.60927 -2.32665 -3.35263 28.25913 6.82449 7.54931 -24.43225 -6.8465 1.40864 2.9299
0.00121 0.0001 0.00127 -174.47602 -22.85496 1.3631 37.36041 0.17461 -12.70608 -15.06665 2.43869 -1.17386 -20.65934 -7.07707 2.76381 131.50714 81.19383 -3.05332 2.81959 -24.92288 4.47816 14.31489 30.99 -87.2138 4.07828 4.45832 26.11226 -5.24882 -8.95512 -19.89683 -6.62972 -2.34207 -3.3628 28.35114 6.69836 7.15662 -24.47819 -6.83818 1.47618 2.96301
0.00208 4e-05 0.00212 -174.6965 -22.86527 1.28706 37.16548 0.18145 -12.86537 -15.0651 2.45785 -1.17462 -20.84688 -6.54627 3.40456 131.64797 81.19631 -3.02068 2.63716 -24.82711 4.37525 14.66185 30.85705 -87.4634 4.02677 2.76327 26.25893 -5.22058 -8.57899 -19.90633 -6.65016 -2.35754 -3.373 28.4429 6.57229 6.76363 -24.52404 -6.82986 1.54373 2.99613
0.00296 -1e-05 0.00296 -174.91701 -22.87556 1.21078 36.9703 0.18828 -13.02519 -15.06359 2.47714 -1.17538 -21.03413 -6.01346 4.04716 131.78928 81.19892 -2.98828 2.45377 -24.73148 4.27139 15.01112 30.72398 -87.71444 3.97497 1.05979 26.40565 -5.19195 -8.20123 -19.91584 -6.67065 -2.37317 -3.38328 28.53461 6.44596 6.369 -24.56988 -6.8215 1.61149 3.02935
0.00384 -7e-05 0.00381 -175.13862 -22.88616 1.13522 36.77519 0.19521 -13.1832 -15.06166 2.49598 -1.17614 -21.22368 -5.48798 4.68412 131.92769 81.20101 -2.95457 2.27372 -24.63438 4.17164 15.351 30.5908 -87.96104 3.9245 -0.61245 26.5531 -5.16508 -7.82941 -19.92537 -6.69102 -2.38816 -3.39323 28.62728 6.32025 5.98044 -24.61602 -6.81325 1.67855 3.06222
0.00472 -0.00012 0.00465 -175.35779 -22.89605 1.05833 36.58023 0.2019 -13.34471 -15.06072 2.51563 -1.17688 -21.40857 -4.94809 5.33177 132.07273 81.20406 -2.92346 2.08748 -24.54049 4.06375 15.70927 30.45797 -88.21532 3.87128 -2.34481 26.69878 -5.13471 -7.44608 -19.93482 -6.7116 -2.4044 -3.40382 28.7178 6.19342 5.58 -24.6615 -6.80481 1.74697 3.09578
0.0056 -0.00018 0.0055 -175.5792 -22.90673 0.98261 36.38498 0.20885 -13.50294 -15.05862 2.53466 -1.17766 -21.59742 -4.42193 5.96947 132.20994 81.20634 -2.89008 1.90632 -24.44339 3.96335 16.05081 30.32485 -88.4643 3.82083 -4.02339 26.84635 -5.10755 -7.07329 -19.94441 -6.73199 -2.4195 -3.41382 28.81052 6.06767 5.1907 -24.70761 -6.79654 1.81412 3.1287
0.00648 -0.00023 0.00635 -175.80353 -22.91785 0.90852 36.18986 0.216 -13.65745 -15.05605 2.55244 -1.17842 -21.79264 -3.91063 6.59566 132.34439 81.20723 -2.85335 1.73381 -24.34325 3.87221 16.37099 30.19114 -88.69979 3.77287 -5.62997 26.99536 -5.08438 -6.71358 -19.95393 -6.75214 -2.43316 -3.42309 28.90514 5.94298 4.81416 -24.75444 -6.78848 1.87978 3.16087
0.00733 -0.00028 0.00717 -176.01161 -22.92484 0.82562 35.99541 0.22166 -13.83422 -15.05903 2.57596 -1.17908 -21.95585 -3.30804 7.29005 132.51522 81.21477 -2.83416 1.51888 -24.26327 3.72812 16.8113 30.06014 -88.99183 3.70786 -7.63201 27.13345 -5.03847 -6.27921 -19.96314 -6.77364 -2.45495 -3.43653 28.98648 5.81136 4.36165 -24.79699 -6.7792 1.95423 3.19742
0.00826 -0.00034 0.00805 -176.25358 -22.94158 0.76095 35.79871 0.23069 -13.96347 -15.04851 2.58828 -1.18009 -22.18353 -2.90177 7.83925 132.59622 81.20914 -2.77912 1.38875 -24.13908 3.69549 17.00003 29.92386 -89.17804 3.68056 -8.81182 27.29621 -5.04037 -6.00195 -19.97344 -6.79231 -2.45969 -3.44122 29.09727 5.69494 4.07102 -24.84865 -6.7725 2.00997 3.22468
0.00934 -0.00045 0.0091 -176.59275 -22.97706 0.7495 35.60262 0.24719 -13.9656 -15.01473 2.56255 -1.18084 -22.6152 -3.00735 7.99573 132.53247 81.16078 -2.61397 1.53366 -23.90595 3.9744 16.47461 29.76986 -88.95431 3.74331 -7.61038 27.51464 -5.17624 -6.16436 -19.98415 -6.80283 -2.41646 -3.42126 29.2786 5.61613 4.21571 -24.92484 -6.77288 2.01529 3.22678
0.01049 -0.00057 0.01021 -176.96498 -23.02396 0.7556 35.40303 0.26739 -13.91943 -14.96458 2.52713 -1.18214 -23.10657 -3.31384 8.00449 132.35769 81.10097 -2.41407 1.75699 -23.62606 4.36455 15.70007 29.61156 -88.64223 3.84617 -5.60459 27.76045 -5.35959 -6.48347 -19.99714 -6.8105 -2.35648 -3.3927 29.49167 5.55352 4.52435 -25.01021 -6.77586 2.00168 3.2195
0.01164 -0.00068 0.0113 -177.31963 -23.07069 0.75176 35.20061 0.2871 -13.8932 -14.91324 2.5007 -1.18397 -23.55294 -3.5475 8.07832 132.1698 81.04996 -2.23895 1.91536 -23.35957 4.69956 15.05625 29.45684 -88.45403 3.93975 -4.05087 28.00108 -5.51943 -6.7246 -20.00988 -6.81979 -2.30474 -3.36838 29.69665 5.48594 4.76411 -25.09171 -6.77762 1.99613 3.21629
0.01268 -0.0008 0.01237 -177.68599 -23.09564 0.75689 35.01684 0.3019 -13.87524 -14.89936 2.45413 -1.18254 -24.0749 -3.7086 8.16427 132.25813 80.98139 -2.0297 2.19305 -23.1264 5.05259 14.34178 29.29361 -87.92959 3.99663 -2.13794 28.2095 -5.68759 -6.99241 -20.01641 -6.82796 -2.2497 -3.34234 29.87398 5.40754 4.98152 -25.17211 -6.77951 1.99277 3.21388
0.01396 -0.0009 0.01348 -178.03473 -23.1694 0.74668 34.7934 0.32768 -13.82873 -14.80225 2.4482 -1.188 -24.45352 -4.06216 8.18528 131.73465 80.94964 -1.87842 2.24659 -22.81242 5.39643 13.71068 29.14913 -88.06271 4.13822 -0.77286 28.49349 -5.8496 -7.24455 -20.04005 -6.83749 -2.19831 -3.3182 30.11762 5.35647 5.28298 -25.25679 -6.78178 1.98041 3.2076
0.01584 -0.00095 0.01473 -178.33458 -23.36787 0.69704 34.46169 0.38378 -13.7143 -14.49166 2.54775 -1.21268 -24.42064 -4.95158 8.10099 129.63087 80.99564 -1.93976 1.61148 -22.28939 5.67026 13.41112 29.03888 -90.22518 4.51465 -1.20521 28.96005 -5.98422 -7.39214 -20.07917 -6.85401 -2.15455 -3.29832 30.52483 5.36815 5.78569 -25.35236 -6.78416 1.94765 3.19294
0.01795 -0.00098 0.016 -178.61339 -23.61576 0.63017 34.09055 0.45054 -13.57304 -14.09626 2.68983 -1.2442 -24.24083 -6.01782 7.94766 126.89667 81.08297 -2.05378 0.75722 -21.68601 5.93425 13.19591 28.9503 -93.01957 4.97309 -2.20161 29.5037 -6.11124 -7.5236 -20.14115 -6.8716 -2.11618 -3.28117 30.99886 5.4081 6.36417 -25.45148 -6.78688 1.90661 3.17477
0.01997 -0.00103 0.01724 -178.89752 -23.84669 0.56621 33.73659 0.51194 -13.44457 -13.73074 2.81895 -1.27239 -24.12996 -6.96778 7.8034 124.4015 81.17032 -2.11317 0.03669 -21.11792 6.21408 12.91651 28.86504 -95.395 5.38668 -2.88108 30.02687 -6.24036 -7.67638 -20.21327 -6.88695 -2.07977 -3.26485 31.45132 5.44124 6.90356 -25.54835 -6.78968 1.86937 3.15816
0.02194 -0.00106 0.01858 -179.20351 -24.05761 0.52293 33.38372 0.57604 -13.3116 -13.39842 2.92256 -1.30162 -24.01525 -8.0759 7.75538 122.11621 81.18248 -2.29548 -0.8242 -20.55408 6.44967 12.74036 28.72743 -98.31156 5.83293 -3.78383 30.49627 -6.37497 -7.7722 -20.19925 -6.90932 -2.02457 -3.23969 31.87192 5.45071 7.47397 -25.649 -6.79163 1.83096 3.14119
0.02405 -0.0011 0.0197 -179.45504 -24.31824 0.43312 33.02166 0.63651 -13.18264 -12.98052 3.08738 -1.33019 -23.86885 -8.89459 7.48335 119.22875 81.35547 -2.2415 -1.4471 -19.96205 6.77376 12.36894 28.69979 -100.26749 6.23103 -4.37151 31.08718 -6.4981 -7.98501 -20.36947 -6.91772 -2.00949 -3.23348 32.36908 5.51439 7.98857 -25.74152 -6.79533 1.79372 3.1245
0.0266 -0.00118 0.02025 -179.59147 -24.73467 0.21189 32.62369 0.68857 -13.06695 -12.31689 3.42952 -1.35618 -23.70376 -8.8649 6.67224 114.97468 82.00529 -1.46836 -1.34754 -19.31995 7.34217 11.47053 29.00884 -99.2832 6.46742 -3.90718 32.06676 -6.56942 -8.48388 -21.0461 -6.88418 -2.10829 -3.28094 33.10663 5.73515 8.39206 -25.8193 -6.80434 1.75775 3.10738
0.02926 -0.00126 0.02056 -179.66841 -25.19385 -0.05414 32.22194 0.73578 -12.95632 -11.57566 3.82856 -1.3811 -23.50473 -8.53838 5.61634 110.10969 82.80303 -0.46877 -1.00306 -18.65136 7.9994 10.36925 29.42186 -97.33423 6.65348 -3.11833 33.15225 -6.63251 -9.10501 -21.90538 -6.83715 -2.2466 -3.34707 33.9105 6.00709 8.72595 -25.88735 -6.81495 1.724 3.09106
0.03179 -0.00133 0.02096 -179.75217 -25.61306 -0.2953 31.83475 0.78245 -12.84769 -10.88995 4.18907 -1.40589 -23.30026 -8.34996 4.6459 105.43284 83.51088 0.39545 -0.77927 -17.98935 8.61762 9.33875 29.7607 -95.91631 6.86864 -2.51129 34.14203 -6.71453 -9.69989 -22.68065 -6.79828 -2.36391 -3.40334 34.65381 6.2457 9.04859 -25.9539 -6.82445 1.6921 3.07585
0.03466 -0.00142 0.02146 -179.91898 -26.11987 -0.55687 31.3906 0.84117 -12.72387 -10.11618 4.6037 -1.43349 -23.18156 -8.15231 3.82607 101.11479 84.33471 1.40704 -0.52518 -17.34603 9.23181 8.3956 30.20919 -94.13494 7.06225 -1.7795 35.33588 -6.73545 -10.18244 -23.46658 -6.75076 -2.49397 -3.4654 35.52699 6.5264 9.5488 -26.04466 -6.83565 1.64822 3.05448
0.03686 -0.00149 0.02167 -179.90092 -26.45478 -0.78537 31.0664 0.87341 -12.62832 -9.508 4.91961 -1.45492 -22.87457 -7.90361 2.57981 95.90876 84.92791 2.15089 -0.27106 -16.66048 9.87312 7.22862 30.45971 -92.86613 7.2854 -1.22194 36.12823 -6.87765 -10.91328 -24.26632 -6.71819 -2.60711 -3.51995 36.1457 6.733 9.66943 -26.08381 -6.84361 1.62942 3.04591
0.03724 -0.00149 0.02121 -179.37093 -26.29577 -0.91971 31.05966 0.83429 -12.65269 -9.38121 4.93915 -1.45938 -22.09123 -7.5625 0.72738 88.45091 85.05789 2.23799 -0.09355 -15.84991 10.58804 5.43306 30.08694 -93.30621 7.62152 -1.23446 35.79166 -7.39226 -12.43062 -25.12047 -6.72864 -2.66074 -3.54779 36.03568 6.70714 8.69006 -25.97265 -6.84281 1.68385 3.07495
0.03695 -0.00149 0.02044 -178.66069 -25.96399 -1.01759 31.17632 0.76852 -12.69798 -9.42336 4.85855 -1.45767 -21.11708 -7.18313 -1.61556 80.12562 84.91678 2.02762 0.0801 -15.00194 11.32299 3.43225 29.52118 -94.28075 7.98483 -1.42884 35.047 -8.02262 -14.17141 -25.9711 -6.75473 -2.69635 -3.56758 35.66923 6.60772 7.34281 -25.81172 -6.83865 1.76272 3.11644
0.03694 -0.0015 0.01977 -178.04268 -25.71642 -1.12677 31.24684 0.71447 -12.70482 -9.38502 4.8306 -1.45891 -20.2036 -6.83705 -4.10114 72.15291 84.755 1.85652 0.26713 -14.17998 12.0359 1.56172 29.07673 -94.9707 8.32313 -1.53114 34.48371 -8.57679 -15.72147 -26.78276 -6.77486 -2.74244 -3.59207 35.42575 6.55181 6.2097 -25.6803 -6.8355 1.82735 3.15054
0.03703 -0.00148 0.01929 -177.37626 -25.44507 -1.25985 31.27689 0.66186 -12.83167 -9.35896 4.77638 -1.45951 -19.38497 -6.4165 -5.156 64.28742 85.18323 2.07649 0.41205 -13.31484 12.80821 -0.48092 28.49243 -95.80664 8.71436 -1.66295 33.93699 -9.23029 -17.64347 -27.77052 -6.79031 -2.78095 -3.6132 35.15563 6.45491 4.87904 -25.51964 -6.83423 1.90491 3.19176
0.03677 -0.00153 0.01833 -176.77211 -25.18325 -1.33382 31.41852 0.60007 -12.71638 -9.34925 4.75003 -1.45998 -18.34126 -6.14216 -9.17368 56.05937 84.34455 1.43559 0.6424 -12.53633 13.45825 -2.20005 28.15424 -96.47393 9.00093 -1.77981 33.26303 -9.70444 -18.85333 -28.39026 -6.81859 -2.82959 -3.63871 34.88154 6.42555 3.86954 -25.40793 -6.82867 1.96179 3.22137
